<svg id="logo" xmlns="http://www.w3.org/2000/svg" width="338.3" height="51.57" viewBox="0 0 338.3 51.57"> 
		<title>noble-desktop-logo</title>
		<g id="noble-desktop">
			<g id="noble">
				<path id="noble-n" d="M93.37,30.87V46.61H87.83V31.16H77.62V46.61H72.09v-21h16A5.27,5.27,0,0,1,93.37,30.87Z" transform="translate(-7.1 -7.94)" fill="#dd2027"/>
				<path id="noble-o" d="M112.3,25.62a5.27,5.27,0,0,1,5.25,5.25v10.5a5.27,5.27,0,0,1-5.25,5.25H101.52a5.3,5.3,0,0,1-5.25-5.25V30.87a5.3,5.3,0,0,1,5.25-5.25Zm-10.5,15.45H112V31.16H101.81Z" transform="translate(-7.1 -7.94)" fill="#dd2027"/>
				<path id="noble-b" d="M142.35,30.87v10.5a5.28,5.28,0,0,1-5.25,5.25h-16V18.75h5.54v6.88h10.5A5.28,5.28,0,0,1,142.35,30.87ZM126.6,41.08h10.21V31.16H126.6Z" transform="translate(-7.1 -7.94)" fill="#dd2027"/>
				<path id="noble-l" d="M150.71,18.71V41.08h4.23v5.54h-4.56a5.3,5.3,0,0,1-5.25-5.25V18.71Z" transform="translate(-7.1 -7.94)" fill="#dd2027"/>
				<path id="noble-e" d="M178.94,30.87v8H163.2v2.17h15.74v5.54h-16a5.3,5.3,0,0,1-5.25-5.25V30.87a5.3,5.3,0,0,1,5.25-5.25h10.78A5.27,5.27,0,0,1,178.94,30.87Zm-5.54,3.18v-2.9H163.2v2.9Z" transform="translate(-7.1 -7.94)" fill="#dd2027"/>
			</g>
			<g id="desktop">
				<path id="desktop-d" d="M210,18.75V46.61H193a4.38,4.38,0,0,1-4.42-4.38V30A4.38,4.38,0,0,1,193,25.62h14V18.75Zm-4.38,24.9A1.44,1.44,0,0,0,207,42.23V30a1.44,1.44,0,0,0-1.41-1.41H193A1.44,1.44,0,0,0,191.58,30V42.23A1.44,1.44,0,0,0,193,43.65Z" transform="translate(-7.1 -7.94)" fill="#fff"/>
				<path id="desktop-e" d="M234.4,30v7.6H216v4.63a1.44,1.44,0,0,0,1.41,1.41h17v3h-17A4.37,4.37,0,0,1,213,42.23V30a4.37,4.37,0,0,1,4.38-4.38H230A4.38,4.38,0,0,1,234.4,30Zm-3,4.63V30A1.41,1.41,0,0,0,230,28.59h-12.6A1.44,1.44,0,0,0,216,30v4.63Z" transform="translate(-7.1 -7.94)" fill="#fff"/>
				<path id="desktop-s" d="M259.34,30.29h-3V30a1.44,1.44,0,0,0-1.41-1.41h-12.6A1.44,1.44,0,0,0,240.92,30v3.22a1.44,1.44,0,0,0,1.41,1.41h12.6A4.38,4.38,0,0,1,259.34,39v3.22a4.38,4.38,0,0,1-4.42,4.38h-12.6a4.37,4.37,0,0,1-4.38-4.38v-.29h3v.29a1.44,1.44,0,0,0,1.41,1.41h12.6a1.44,1.44,0,0,0,1.41-1.41V39a1.44,1.44,0,0,0-1.41-1.41h-12.6a4.37,4.37,0,0,1-4.38-4.38V30a4.37,4.37,0,0,1,4.38-4.38h12.6A4.38,4.38,0,0,1,259.34,30Z" transform="translate(-7.1 -7.94)" fill="#fff"/>
				<polygon id="desktop-k" points="265.21 27.58 274.19 17.68 270.28 17.68 262.02 26.69 258.32 26.69 258.32 10.8 255.36 10.8 255.36 38.67 258.32 38.67 258.32 29.66 263.12 29.66 271.37 38.67 275.24 38.67 265.21 27.58" fill="#fff"/>
				<path id="desktop-t" d="M287,28.59V42.23a1.44,1.44,0,0,0,1.41,1.41h7.67v3h-7.67a4.35,4.35,0,0,1-4.38-4.38V18.75h3v6.88h9.08v3Z" transform="translate(-7.1 -7.94)" fill="#fff"/>
				<path id="desktop-o" d="M315.82,25.62A4.38,4.38,0,0,1,320.24,30V42.23a4.38,4.38,0,0,1-4.42,4.38h-12.6a4.37,4.37,0,0,1-4.38-4.38V30a4.37,4.37,0,0,1,4.38-4.38Zm-12.6,3A1.44,1.44,0,0,0,301.82,30V42.23a1.44,1.44,0,0,0,1.41,1.41h12.6a1.41,1.41,0,0,0,1.41-1.41V30a1.41,1.41,0,0,0-1.41-1.41Z" transform="translate(-7.1 -7.94)" fill="#fff"/>
				<path id="desktop-p" d="M345.4,30V42.23A4.37,4.37,0,0,1,341,46.61H327v8.32h-3V25.62h17A4.37,4.37,0,0,1,345.4,30Zm-3,0A1.44,1.44,0,0,0,341,28.59h-12.6A1.44,1.44,0,0,0,327,30V42.23a1.44,1.44,0,0,0,1.45,1.41H341a1.44,1.44,0,0,0,1.41-1.41Z" transform="translate(-7.1 -7.94)" fill="#fff"/>
			</g>
		</g>
		<g id="n-background">
			<g id="rounded-rectangle">
				<rect x="0.5" y="0.5" width="50.57" height="50.57" rx="13" ry="13"/>
				<rect x="0.5" y="0.5" width="50.57" height="50.57" rx="13" ry="13" fill="none" stroke="#a9a9a9" stroke-miterlimit="10"/>
			</g>
		</g>
		<g id="n">
			<rect id="color1" x="12.76" y="29.93" width="7.5" height="9.37" fill="#44c7f4"/>
			<polygon id="color2" points="12.76 20.55 12.76 29.3 12.76 29.93 20.26 29.93 20.26 29.3 20.26 20.55 19.77 20.55 12.76 20.55" fill="#b2d235"/>
			<polygon id="color3" points="20.26 12.21 19.77 12.21 12.76 12.21 12.76 20.24 12.76 20.55 19.77 20.55 20.26 20.55 20.26 20.24 20.26 12.21" fill="#f5ea00"/>
			<path id="color4" d="M38.41,20.16H27.36V28.5H38.41V20.16Z" transform="translate(-7.1 -7.94)" fill="#fdbc11"/>
			<path id="color5" d="M45.91,28.5c0-7.45-1.25-8.35-7.5-8.35h0V28.5h7.5Z" transform="translate(-7.1 -7.94)" fill="#ef4e26"/>
			<path id="color6" d="M39.41,28.5h-1v9.58h7.5V28.5Z" transform="translate(-7.1 -7.94)" fill="#f6921e"/>
			<rect id="color7" x="31.31" y="29.93" width="7.5" height="9.37" fill="#ffd300"/>
		</g>
		</svg>